<mxfile host="app.diagrams.net" modified="2020-10-22T11:46:59.155Z" agent="5.0 (Macintosh; Intel Mac OS X 10_13_6) AppleWebKit/605.1.15 (KHTML, like Gecko) Version/13.1.2 Safari/605.1.15" etag="WCssIlNntvcNp4gOK5ri" version="13.8.1" type="github">
  <diagram id="R2lEEEUBdFMjLlhIrx00" name="Page-1">
    <mxGraphModel dx="1426" dy="941" grid="1" gridSize="10" guides="1" tooltips="1" connect="1" arrows="1" fold="1" page="1" pageScale="1" pageWidth="850" pageHeight="1100" math="0" shadow="0" extFonts="Permanent Marker^https://fonts.googleapis.com/css?family=Permanent+Marker">
      <root>
        <mxCell id="0" />
        <mxCell id="1" parent="0" />
        <mxCell id="9yCa0ICLq8U-drlUduMJ-3" value="" style="endArrow=none;html=1;exitX=0;exitY=0.5;exitDx=0;exitDy=0;" parent="1" source="9yCa0ICLq8U-drlUduMJ-8" edge="1">
          <mxGeometry width="50" height="50" relative="1" as="geometry">
            <mxPoint x="300" y="765" as="sourcePoint" />
            <mxPoint x="220" y="715" as="targetPoint" />
          </mxGeometry>
        </mxCell>
        <mxCell id="9yCa0ICLq8U-drlUduMJ-4" value="" style="endArrow=none;html=1;" parent="1" edge="1">
          <mxGeometry width="50" height="50" relative="1" as="geometry">
            <mxPoint x="220" y="689.5" as="sourcePoint" />
            <mxPoint x="300" y="689.5" as="targetPoint" />
          </mxGeometry>
        </mxCell>
        <mxCell id="9yCa0ICLq8U-drlUduMJ-5" value="" style="endArrow=none;html=1;entryX=0;entryY=0.5;entryDx=0;entryDy=0;exitX=1;exitY=0;exitDx=0;exitDy=0;" parent="1" source="9yCa0ICLq8U-drlUduMJ-22" target="9yCa0ICLq8U-drlUduMJ-7" edge="1">
          <mxGeometry width="50" height="50" relative="1" as="geometry">
            <mxPoint x="230" y="660" as="sourcePoint" />
            <mxPoint x="290" y="610" as="targetPoint" />
          </mxGeometry>
        </mxCell>
        <mxCell id="9yCa0ICLq8U-drlUduMJ-7" value="ProductOf" style="rhombus;whiteSpace=wrap;html=1;" parent="1" vertex="1">
          <mxGeometry x="300" y="580" width="70" height="60" as="geometry" />
        </mxCell>
        <mxCell id="9yCa0ICLq8U-drlUduMJ-8" value="BuyerOf" style="rhombus;whiteSpace=wrap;html=1;" parent="1" vertex="1">
          <mxGeometry x="300" y="740" width="70" height="60" as="geometry" />
        </mxCell>
        <mxCell id="9yCa0ICLq8U-drlUduMJ-9" value="CafeOf" style="rhombus;whiteSpace=wrap;html=1;" parent="1" vertex="1">
          <mxGeometry x="300" y="660" width="70" height="60" as="geometry" />
        </mxCell>
        <mxCell id="9yCa0ICLq8U-drlUduMJ-10" value="" style="endArrow=classic;html=1;" parent="1" edge="1">
          <mxGeometry width="50" height="50" relative="1" as="geometry">
            <mxPoint x="370" y="609.5" as="sourcePoint" />
            <mxPoint x="500" y="609.5" as="targetPoint" />
          </mxGeometry>
        </mxCell>
        <mxCell id="9yCa0ICLq8U-drlUduMJ-11" value="" style="endArrow=classic;html=1;" parent="1" edge="1">
          <mxGeometry width="50" height="50" relative="1" as="geometry">
            <mxPoint x="370" y="689.5" as="sourcePoint" />
            <mxPoint x="500" y="689.5" as="targetPoint" />
          </mxGeometry>
        </mxCell>
        <mxCell id="9yCa0ICLq8U-drlUduMJ-12" value="" style="endArrow=classic;html=1;" parent="1" edge="1">
          <mxGeometry width="50" height="50" relative="1" as="geometry">
            <mxPoint x="370" y="769.5" as="sourcePoint" />
            <mxPoint x="500" y="769.5" as="targetPoint" />
          </mxGeometry>
        </mxCell>
        <mxCell id="9yCa0ICLq8U-drlUduMJ-13" value="Cafe" style="rounded=0;whiteSpace=wrap;html=1;" parent="1" vertex="1">
          <mxGeometry x="500" y="745" width="100" height="50" as="geometry" />
        </mxCell>
        <mxCell id="9yCa0ICLq8U-drlUduMJ-14" value="Customer" style="rounded=0;whiteSpace=wrap;html=1;" parent="1" vertex="1">
          <mxGeometry x="500" y="665" width="100" height="50" as="geometry" />
        </mxCell>
        <mxCell id="9yCa0ICLq8U-drlUduMJ-15" value="Product" style="rounded=0;whiteSpace=wrap;html=1;" parent="1" vertex="1">
          <mxGeometry x="500" y="580" width="100" height="50" as="geometry" />
        </mxCell>
        <mxCell id="9yCa0ICLq8U-drlUduMJ-16" value="" style="endArrow=none;html=1;" parent="1" edge="1">
          <mxGeometry width="50" height="50" relative="1" as="geometry">
            <mxPoint x="550" y="580" as="sourcePoint" />
            <mxPoint x="600" y="530" as="targetPoint" />
          </mxGeometry>
        </mxCell>
        <mxCell id="9yCa0ICLq8U-drlUduMJ-17" value="" style="endArrow=none;html=1;" parent="1" edge="1">
          <mxGeometry width="50" height="50" relative="1" as="geometry">
            <mxPoint x="550" y="580" as="sourcePoint" />
            <mxPoint x="500" y="530" as="targetPoint" />
          </mxGeometry>
        </mxCell>
        <mxCell id="9yCa0ICLq8U-drlUduMJ-18" value="" style="endArrow=none;html=1;" parent="1" edge="1">
          <mxGeometry width="50" height="50" relative="1" as="geometry">
            <mxPoint x="550" y="580" as="sourcePoint" />
            <mxPoint x="549.5" y="500" as="targetPoint" />
          </mxGeometry>
        </mxCell>
        <mxCell id="9yCa0ICLq8U-drlUduMJ-19" value="&lt;u&gt;product_id&lt;/u&gt;" style="ellipse;whiteSpace=wrap;html=1;" parent="1" vertex="1">
          <mxGeometry x="410" y="500" width="100" height="40" as="geometry" />
        </mxCell>
        <mxCell id="9yCa0ICLq8U-drlUduMJ-20" value="price" style="ellipse;whiteSpace=wrap;html=1;" parent="1" vertex="1">
          <mxGeometry x="505" y="460" width="90" height="40" as="geometry" />
        </mxCell>
        <mxCell id="9yCa0ICLq8U-drlUduMJ-21" value="product_name" style="ellipse;whiteSpace=wrap;html=1;" parent="1" vertex="1">
          <mxGeometry x="590" y="500" width="100" height="40" as="geometry" />
        </mxCell>
        <mxCell id="9yCa0ICLq8U-drlUduMJ-22" value="Purchase" style="rounded=0;whiteSpace=wrap;html=1;" parent="1" vertex="1">
          <mxGeometry x="120" y="665" width="100" height="50" as="geometry" />
        </mxCell>
        <mxCell id="9yCa0ICLq8U-drlUduMJ-24" value="" style="endArrow=none;html=1;" parent="1" edge="1">
          <mxGeometry width="50" height="50" relative="1" as="geometry">
            <mxPoint x="600" y="692.5" as="sourcePoint" />
            <mxPoint x="710" y="693" as="targetPoint" />
          </mxGeometry>
        </mxCell>
        <mxCell id="9yCa0ICLq8U-drlUduMJ-27" value="&lt;u&gt;customer_id&lt;/u&gt;" style="ellipse;whiteSpace=wrap;html=1;" parent="1" vertex="1">
          <mxGeometry x="710" y="670" width="100" height="40" as="geometry" />
        </mxCell>
        <mxCell id="9yCa0ICLq8U-drlUduMJ-29" value="" style="endArrow=none;html=1;" parent="1" edge="1">
          <mxGeometry width="50" height="50" relative="1" as="geometry">
            <mxPoint x="480" y="860" as="sourcePoint" />
            <mxPoint x="550" y="795" as="targetPoint" />
          </mxGeometry>
        </mxCell>
        <mxCell id="9yCa0ICLq8U-drlUduMJ-31" value="" style="endArrow=none;html=1;" parent="1" edge="1">
          <mxGeometry width="50" height="50" relative="1" as="geometry">
            <mxPoint x="550" y="795" as="sourcePoint" />
            <mxPoint x="620" y="860" as="targetPoint" />
          </mxGeometry>
        </mxCell>
        <mxCell id="9yCa0ICLq8U-drlUduMJ-32" value="location" style="ellipse;whiteSpace=wrap;html=1;" parent="1" vertex="1">
          <mxGeometry x="610" y="850" width="100" height="40" as="geometry" />
        </mxCell>
        <mxCell id="9yCa0ICLq8U-drlUduMJ-34" value="&lt;u&gt;cafe_name&lt;/u&gt;" style="ellipse;whiteSpace=wrap;html=1;" parent="1" vertex="1">
          <mxGeometry x="400" y="850" width="100" height="40" as="geometry" />
        </mxCell>
        <mxCell id="9yCa0ICLq8U-drlUduMJ-35" value="" style="endArrow=none;html=1;" parent="1" edge="1">
          <mxGeometry width="50" height="50" relative="1" as="geometry">
            <mxPoint x="170" y="665" as="sourcePoint" />
            <mxPoint x="170" y="600" as="targetPoint" />
          </mxGeometry>
        </mxCell>
        <mxCell id="9yCa0ICLq8U-drlUduMJ-36" value="date" style="ellipse;whiteSpace=wrap;html=1;" parent="1" vertex="1">
          <mxGeometry x="120" y="560" width="100" height="40" as="geometry" />
        </mxCell>
      </root>
    </mxGraphModel>
  </diagram>
</mxfile>
